<?xml version="1.0" encoding="UTF-8" standalone="no"?>
<svg
   xmlns:dc="http://purl.org/dc/elements/1.1/"
   xmlns:cc="http://creativecommons.org/ns#"
   xmlns:rdf="http://www.w3.org/1999/02/22-rdf-syntax-ns#"
   xmlns:svg="http://www.w3.org/2000/svg"
   xmlns="http://www.w3.org/2000/svg"
   xmlns:sodipodi="http://sodipodi.sourceforge.net/DTD/sodipodi-0.dtd"
   xmlns:inkscape="http://www.inkscape.org/namespaces/inkscape"
   width="200mm"
   height="200mm"
   viewBox="0 0 200 200"
   version="1.1"
   id="svg8"
   sodipodi:docname="logoujbv.svg"
   inkscape:version="1.0.1 (3bc2e813f5, 2020-09-07)">
  <defs
     id="defs2" />
  <sodipodi:namedview
     id="base"
     pagecolor="#e6e6e6"
     bordercolor="#666666"
     borderopacity="1.0"
     inkscape:pageopacity="0"
     inkscape:pageshadow="2"
     inkscape:zoom="0.49497475"
     inkscape:cx="75.965063"
     inkscape:cy="375.69395"
     inkscape:document-units="mm"
     inkscape:current-layer="g930"
     inkscape:document-rotation="0"
     showgrid="true"
     inkscape:window-width="1366"
     inkscape:window-height="705"
     inkscape:window-x="-8"
     inkscape:window-y="-8"
     inkscape:window-maximized="1"
     inkscape:snap-global="true"
     inkscape:object-paths="false"
     inkscape:snap-intersection-paths="false"
     inkscape:snap-smooth-nodes="true">
    <inkscape:grid
       type="xygrid"
       id="grid837" />
  </sodipodi:namedview>
  <metadata
     id="metadata5">
    <rdf:RDF>
      <cc:Work
         rdf:about="">
        <dc:format>image/svg+xml</dc:format>
        <dc:type
           rdf:resource="http://purl.org/dc/dcmitype/StillImage" />
        <dc:title></dc:title>
      </cc:Work>
    </rdf:RDF>
  </metadata>
  <g
     inkscape:label="Layer 1"
     inkscape:groupmode="layer"
     id="layer1">
    <g
       id="g886"
       transform="matrix(1.5761805,0,0,1.5761805,-49.511932,-63.888972)">
      <path
         sodipodi:type="star"
         style="fill:#ffffff;fill-opacity:1;stroke-width:0.529167;stroke-linecap:round;stroke-linejoin:round"
         id="path972"
         sodipodi:sides="5"
         sodipodi:cx="-84.261375"
         sodipodi:cy="104.4594"
         sodipodi:r1="62.689377"
         sodipodi:r2="50.716766"
         sodipodi:arg1="1.0471976"
         sodipodi:arg2="1.6755161"
         inkscape:flatsided="true"
         inkscape:rounded="0.15"
         inkscape:randomized="0"
         d="m -52.91669,158.74999 c -9.573363,5.52718 -65.07707,-0.30649 -73.29207,-7.70331 -8.21499,-7.39682 -19.81843,-61.986686 -15.32221,-72.085353 4.49622,-10.098667 52.828612,-38.003385 63.822422,-36.847888 10.99381,1.155496 52.468305,38.499303 54.766637,49.312106 2.298331,10.812805 -20.401415,61.797265 -29.974779,67.324445 z"
         inkscape:transform-center-x="0.03735489"
         inkscape:transform-center-y="-3.9282165"
         transform="matrix(1.0463511,-0.11345602,0.11345602,1.0463511,171.59348,-10.716111)"
         inkscape:export-xdpi="8"
         inkscape:export-ydpi="8" />
      <path
         sodipodi:type="star"
         style="fill:#339fff;fill-opacity:1;stroke-width:0.529167;stroke-linecap:round;stroke-linejoin:round"
         id="path835"
         sodipodi:sides="5"
         sodipodi:cx="-84.261375"
         sodipodi:cy="104.4594"
         sodipodi:r1="62.689377"
         sodipodi:r2="50.716766"
         sodipodi:arg1="1.0471976"
         sodipodi:arg2="1.6755161"
         inkscape:flatsided="true"
         inkscape:rounded="0.15"
         inkscape:randomized="0"
         d="m -52.91669,158.74999 c -9.573363,5.52718 -65.07707,-0.30649 -73.29207,-7.70331 -8.21499,-7.39682 -19.81843,-61.986686 -15.32221,-72.085353 4.49622,-10.098667 52.828612,-38.003385 63.822422,-36.847888 10.99381,1.155496 52.468305,38.499303 54.766637,49.312106 2.298331,10.812805 -20.401415,61.797265 -29.974779,67.324445 z"
         inkscape:transform-center-x="0.035493279"
         inkscape:transform-center-y="-3.7323286"
         transform="rotate(-6.1884137,39.687574,-1554.3448)"
         inkscape:export-xdpi="8"
         inkscape:export-ydpi="8" />
      <path
         style="fill:none;stroke:#80c4ff;stroke-width:4.23333;stroke-linecap:butt;stroke-linejoin:miter;stroke-miterlimit:4;stroke-dasharray:none;stroke-opacity:1"
         d="m 56.282553,96.141954 c -0.60145,1.27823 3.11913,2.05782 5.03207,2.86307 1.91294,0.80525 8.21943,7.722176 10.29466,8.516736 3.86872,1.48124 7.37458,1.47492 8.06866,4.25123 0.69408,2.77632 -1.38816,2.08224 -3.4704,6.76726 -2.08223,4.68503 -3.47039,12.84045 -3.47039,15.44325 0,2.60278 -3.06511,6.40952 -1.51995,7.61341 1.54516,1.2039 4.29626,-2.92838 5.68442,-4.31654 1.38816,-1.38815 10.41118,-6.24671 12.49341,-9.89062 1.63797,-2.86644 3.24819,-5.24721 5.20559,-5.20558 2.74296,0.0583 2.78193,2.2513 6.073177,6.42021 2.6028,3.29688 11.10526,8.32894 12.66693,9.19654 1.56168,0.8676 4.24945,4.08907 5.72177,3.63865 1.47231,-0.45041 -1.54106,-5.35664 -2.07786,-6.93552 -0.81816,-2.45548 -1.19361,-10.72815 -4.33799,-15.61676 -3.14438,-4.88861 -6.31428,-5.21937 -5.03207,-6.76726 1.58095,-1.84444 5.55263,-1.7352 8.67598,-2.60279 5.40943,-2.21384 7.46875,-6.70811 10.75821,-8.15542 2.26881,-1.379686 7.05541,-3.034336 6.47559,-5.474446 -0.57984,-2.4401 -6.64911,1.30998 -9.59894,0.26886 -2.94983,-1.04111 -10.41117,-1.7352 -13.361,-0.52056 -2.94984,1.21464 -5.89967,3.64391 -7.28782,2.08224 -1.6626,-1.87042 -0.34705,-7.80838 -0.52057,-11.10526 -0.17352,-3.29687 -4.541057,-9.263114 -5.205577,-12.319887 -0.8676,-3.99095 -1.69653,-6.327401 -2.65272,-6.400862 -0.95618,-0.07347 -1.16471,2.236399 -1.85879,5.70679 -0.37433,1.871647 -1.90871,4.685023 -3.12335,7.114301 -1.21464,2.429268 -2.28914,4.371368 -2.11562,8.535838 0.17352,4.16447 1.28565,5.087 -0.52055,6.56908 -1.80621,1.48209 -7.3734,-1.5679 -11.09909,-1.45386 -3.72568,0.11403 -10.54674,1.79487 -13.33379,1.0981 -2.78705,-0.69676 -5.96253,-0.59844 -6.56399,0.6798 z"
         id="path948-9"
         sodipodi:nodetypes="zzszsszssssszczccczszssszssszzzz"
         inkscape:export-xdpi="8"
         inkscape:export-ydpi="8" />
      <g
         id="g966"
         transform="matrix(0.76102225,0,0,0.76102225,23.080547,24.654375)"
         style="stroke-width:1.39067;stroke-miterlimit:4;stroke-dasharray:none"
         inkscape:export-xdpi="8"
         inkscape:export-ydpi="8">
        <path
           style="fill:none;stroke:#073e7b;stroke-width:1.39067;stroke-linecap:butt;stroke-linejoin:miter;stroke-miterlimit:4;stroke-dasharray:none;stroke-opacity:1"
           d="m 43.628173,93.936249 c -0.790324,1.679632 4.098598,2.704022 6.61225,3.762143 2.513643,1.058121 10.80051,10.147118 13.527403,11.191188 5.083583,1.94638 9.690359,1.93807 10.602395,5.58621 0.912035,3.64814 -1.824064,2.7361 -4.560171,8.89233 -2.736099,6.15623 -4.56017,16.87263 -4.56017,20.29276 0,3.42012 -4.02762,8.42225 -1.997251,10.00419 2.030368,1.58195 5.645385,-3.84796 7.469457,-5.67203 1.824062,-1.82406 13.680508,-8.20831 16.41661,-12.99649 2.15233,-3.76657 4.268201,-6.89494 6.840258,-6.84025 3.604317,0.0766 3.655524,2.95827 7.980296,8.43631 3.42013,4.33216 14.59255,10.94441 16.64462,12.08445 2.05208,1.14004 5.58388,5.37313 7.51853,4.78127 1.93465,-0.59185 -2.02498,-7.03875 -2.73035,-9.11343 -1.07508,-3.22655 -1.56843,-14.09703 -5.70021,-20.52077 -4.13179,-6.42374 -8.29711,-6.85837 -6.61225,-8.89233 2.0774,-2.42363 7.29627,-2.28009 11.40043,-3.42012 7.1081,-2.90903 9.8141,-8.81461 14.13652,-10.7164 2.98127,-1.812942 9.27097,-3.987195 8.50906,-7.193542 -0.76192,-3.206346 -8.73707,1.721333 -12.61321,0.353279 -3.87614,-1.368045 -13.68051,-2.280081 -17.55665,-0.684027 -3.87615,1.596063 -7.75229,4.788179 -9.57636,2.736107 -2.18469,-2.457773 -0.45602,-10.260384 -0.68403,-14.592545 -0.22801,-4.332161 -5.967063,-12.171942 -6.840251,-16.188608 -1.140043,-5.244197 -2.229282,-8.314345 -3.485728,-8.410874 -1.256447,-0.09654 -1.53046,2.938677 -2.442494,7.498847 -0.491878,2.459386 -2.508094,6.156224 -4.104151,9.348349 -1.596061,3.192116 -3.007978,5.744072 -2.779969,11.216278 0.228008,5.472205 1.689365,6.684423 -0.684025,8.631912 -2.37339,1.947499 -9.688808,-2.060253 -14.584444,-1.910405 -4.895627,0.149848 -13.858646,2.358498 -17.520891,1.44293 -3.662245,-0.915559 -7.834901,-0.786356 -8.625224,0.893268 z"
           id="path948"
           sodipodi:nodetypes="zzszsszssssszczccczszssszssszzzz" />
        <path
           style="fill:#0a5ab3;fill-opacity:1;stroke:#80c4ff;stroke-width:1.39067;stroke-linecap:butt;stroke-linejoin:miter;stroke-miterlimit:4;stroke-dasharray:none;stroke-opacity:1"
           d="m 74.568465,102.45547 c 0,0 6.529442,-0.2918 8.938832,0.61574 3.212521,1.21005 3.410624,3.11882 3.108111,3.92196 -0.302512,0.80312 -1.710667,2.10687 -4.923188,0.89681 -3.212518,-1.21005 -7.123755,-5.43451 -7.123755,-5.43451 z"
           id="path950"
           sodipodi:nodetypes="csssc" />
        <path
           style="fill:#0a5ab3;fill-opacity:1;stroke:#80c4ff;stroke-width:1.39067;stroke-linecap:butt;stroke-linejoin:miter;stroke-miterlimit:4;stroke-dasharray:none;stroke-opacity:1"
           d="m 114.06892,102.45547 c 0,0 -6.52944,-0.2918 -8.93883,0.61574 -3.21253,1.21005 -3.41063,3.11882 -3.10812,3.92196 0.30251,0.80312 1.71067,2.10687 4.9232,0.89681 3.21251,-1.21005 7.12375,-5.43451 7.12375,-5.43451 z"
           id="path952"
           sodipodi:nodetypes="csssc" />
        <path
           style="fill:#0a5ab3;fill-opacity:1;stroke:#80c4ff;stroke-width:1.39067;stroke-linecap:butt;stroke-linejoin:miter;stroke-miterlimit:4;stroke-dasharray:none;stroke-opacity:1"
           d="m 81.33997,126.15575 c 0,0 5.795979,-3.02083 7.425772,-5.01396 2.17306,-2.6575 1.387573,-4.4084 0.723195,-4.95168 -0.664366,-0.54324 -2.536385,-0.9654 -4.709441,1.69211 -2.173062,2.65749 -3.439526,8.27353 -3.439526,8.27353 z"
           id="path954"
           sodipodi:nodetypes="csssc" />
        <path
           style="fill:#0a5ab3;fill-opacity:1;stroke:#80c4ff;stroke-width:1.39067;stroke-linecap:butt;stroke-linejoin:miter;stroke-miterlimit:4;stroke-dasharray:none;stroke-opacity:1"
           d="m 107.29741,126.15575 c 0,0 -5.79435,-3.02394 -7.423081,-5.01794 -2.171634,-2.65867 -1.385206,-4.40915 -0.720537,-4.95206 0.664659,-0.54289 2.536908,-0.96405 4.708528,1.69463 2.17165,2.65865 3.43509,8.27537 3.43509,8.27537 z"
           id="path956"
           sodipodi:nodetypes="csssc" />
        <path
           style="fill:#0a5ab3;fill-opacity:1;stroke:#80c4ff;stroke-width:1.39067;stroke-linecap:butt;stroke-linejoin:miter;stroke-miterlimit:4;stroke-dasharray:none;stroke-opacity:1"
           d="m 94.882984,87.783881 c 0,0 -2.613229,5.990807 -2.62979,8.565396 -0.02208,3.432794 1.688789,4.302023 2.546999,4.307553 0.858178,0.005 2.580099,-0.84165 2.602171,-4.274435 0.02208,-3.432786 -2.51938,-8.598514 -2.51938,-8.598514 z"
           id="path958"
           sodipodi:nodetypes="csssc" />
      </g>
      <path
         sodipodi:type="star"
         style="fill:none;fill-opacity:1;stroke:#000000;stroke-width:1.05833;stroke-linecap:round;stroke-linejoin:round;stroke-miterlimit:4;stroke-dasharray:none;stroke-opacity:1"
         id="path968"
         sodipodi:sides="5"
         sodipodi:cx="-84.261375"
         sodipodi:cy="104.4594"
         sodipodi:r1="62.689377"
         sodipodi:r2="50.716766"
         sodipodi:arg1="1.0471976"
         sodipodi:arg2="1.6755161"
         inkscape:flatsided="true"
         inkscape:rounded="0.15"
         inkscape:randomized="0"
         d="m -52.91669,158.74999 c -9.573363,5.52718 -65.07707,-0.30649 -73.29207,-7.70331 -8.21499,-7.39682 -19.81843,-61.986686 -15.32221,-72.085353 4.49622,-10.098667 52.828612,-38.003385 63.822422,-36.847888 10.99381,1.155496 52.468305,38.499303 54.766637,49.312106 2.298331,10.812805 -20.401415,61.797265 -29.974779,67.324445 z"
         inkscape:transform-center-x="0.033626145"
         inkscape:transform-center-y="-3.5364413"
         transform="matrix(0.94199447,-0.10214061,0.10214061,0.94199447,163.98057,1.1576094)"
         inkscape:export-xdpi="8"
         inkscape:export-ydpi="8" />
      <g
         id="g930"
         transform="translate(0,4.2333335)"
         inkscape:export-xdpi="8"
         inkscape:export-ydpi="8">
        <g
           aria-label="Jurang Belimbing"
           id="text845"
           style="font-style:normal;font-weight:normal;font-size:10.5833px;line-height:1.25;font-family:sans-serif;fill:#000000;fill-opacity:1;stroke:none;stroke-width:0.264583">
          <path
             d="m 65.173731,134.67675 -1.055428,-0.7976 -3.131212,4.14338 q -0.412365,0.5628 -0.805724,0.7319 -0.414067,0.17936 -0.921167,-0.20386 -0.469996,-0.35519 -0.42918,-0.77775 0.02945,-0.42468 0.420923,-0.92554 l 0.236788,-0.31333 -1.055428,-0.79761 -0.24302,0.32158 q -0.640719,0.83069 -0.611854,1.70103 0.0061,0.86612 0.948148,1.59096 0.665874,0.49026 1.195631,0.61208 0.521512,0.11559 0.947854,-0.0286 0.434586,-0.13794 0.78508,-0.45603 0.338126,-0.32743 0.630996,-0.71497 z"
             style="font-style:normal;font-variant:normal;font-weight:normal;font-stretch:normal;font-family:'Helvetica 65 Medium';-inkscape-font-specification:'Helvetica 65 Medium, ';stroke-width:0.264583"
             id="path911" />
          <path
             d="m 68.798175,139.47797 -1.02128,-0.64747 -1.701674,2.68413 q -0.345869,0.54556 -0.804503,0.73816 -0.488756,0.19187 -1.127134,-0.20061 -0.410258,-0.26009 -0.478323,-0.66424 -0.08669,-0.40372 0.295147,-1.00602 l 1.795751,-2.83252 -1.016915,-0.6447 -1.859391,2.93291 q -1.177238,1.799 0.572903,2.90855 0.407062,0.24583 0.894993,0.26759 0.490698,0.0174 0.905687,-0.20288 l 0.01746,0.0111 -0.406742,0.64157 1.003822,0.6364 z"
             style="font-style:normal;font-variant:normal;font-weight:normal;font-stretch:normal;font-family:'Helvetica 65 Medium';-inkscape-font-specification:'Helvetica 65 Medium, ';stroke-width:0.264583"
             id="path913" />
          <path
             d="m 66.977978,144.71402 1.054789,0.58066 1.256033,-2.2816 q 0.447669,-0.79177 1.053142,-1.01295 0.591435,-0.21711 1.148255,0.0894 0.122229,0.0673 0.225893,0.13615 0.103206,0.0804 0.201885,0.15833 l 0.560729,-1.01857 q -0.07152,-0.063 -0.383422,-0.24647 -0.502954,-0.26508 -1.064232,-0.16704 -0.577808,0.10663 -0.915275,0.45176 l -0.01811,-0.01 0.510887,-0.92803 -0.991412,-0.54578 z"
             style="font-style:normal;font-variant:normal;font-weight:normal;font-stretch:normal;font-family:'Helvetica 65 Medium';-inkscape-font-specification:'Helvetica 65 Medium, ';stroke-width:0.264583"
             id="path915" />
          <path
             d="m 74.465179,145.46913 -0.383299,0.81337 q -0.121158,0.25711 -0.314854,0.3772 -0.20772,0.11348 -0.452247,0.13535 -0.242324,0.0172 -0.469766,-0.0214 -0.23679,-0.043 -0.428448,-0.13335 -0.322278,-0.14045 -0.574332,-0.44203 -0.291385,-0.30298 -0.133316,-0.66266 0.198258,-0.42071 0.559971,-0.47305 0.343283,-0.0496 0.715905,0.0689 0.400401,0.12014 0.787047,0.24521 0.3795,0.116 0.693339,0.0925 z m 1.64457,-0.65318 q 0.34671,-0.79634 -0.0977,-1.41708 -0.441405,-0.59076 -1.208037,-0.95203 -0.841694,-0.40807 -1.65227,-0.37302 -0.399109,0.0347 -0.749911,0.25786 -0.353006,0.22782 -0.626378,0.69883 l 1.093852,0.51547 q 0.236193,-0.37999 0.63009,-0.44001 0.361712,-0.0523 0.82917,0.16795 0.359674,0.15807 0.629621,0.43381 0.268012,0.29196 0.0791,0.71708 -0.216419,0.43501 -0.688336,0.32116 -0.223035,-0.048 -0.502704,-0.14549 -0.284074,-0.0882 -0.621234,-0.17279 -0.359136,-0.13496 -0.721872,-0.22592 -0.378424,-0.0698 -0.724717,-0.0502 -0.353169,0.0221 -0.653358,0.23482 -0.307066,0.21519 -0.527353,0.68265 -0.329893,0.72429 0.0031,1.32682 0.328356,0.60032 1.006171,0.91974 0.458109,0.21588 1.002936,0.28411 0.526399,0.071 0.996806,-0.0787 v 0 q -0.07721,0.35779 0.07421,0.60624 0.155822,0.2391 0.483043,0.3933 0.369023,0.16247 0.746641,0.19761 l 0.356865,-0.75728 q -0.181771,-0.0628 -0.275263,-0.10687 -0.270857,-0.11621 -0.08087,-0.49512 z"
             style="font-style:normal;font-variant:normal;font-weight:normal;font-stretch:normal;font-family:'Helvetica 65 Medium';-inkscape-font-specification:'Helvetica 65 Medium, ';stroke-width:0.264583"
             id="path917" />
          <path
             d="m 75.590288,148.97892 1.12858,0.4196 1.125528,-3.02731 q 0.2125,-0.57155 0.705313,-0.82939 0.460149,-0.25895 1.035306,-0.0561 0.986871,0.35589 0.575844,1.52073 l -1.199363,3.2259 1.133423,0.4214 1.309214,-3.52137 q 0.60111,-1.75024 -1.168079,-2.41904 -1.058283,-0.37141 -1.936976,0.31633 l -0.01217,-0.0266 0.280932,-0.75562 -1.070456,-0.39799 z"
             style="font-style:normal;font-variant:normal;font-weight:normal;font-stretch:normal;font-family:'Helvetica 65 Medium';-inkscape-font-specification:'Helvetica 65 Medium, ';stroke-width:0.264583"
             id="path919" />
          <path
             d="m 83.847231,150.7407 q -0.716744,-0.20032 -0.907395,-0.83341 -0.202255,-0.60943 -0.02383,-1.28386 0.175045,-0.70205 0.652794,-1.17434 0.464083,-0.48125 1.228723,-0.30034 0.761706,0.21221 0.956613,0.80901 0.18859,0.60047 -4.12e-4,1.31486 -0.186358,0.7044 -0.647797,1.17567 -0.481714,0.48728 -1.258699,0.29241 z m 3.744277,-3.68665 -1.169006,-0.30927 -0.192966,0.72937 -0.01998,-0.005 q -0.105857,-0.5091 -0.458676,-0.83229 -0.365453,-0.31585 -0.87502,-0.45066 -1.12933,-0.2774 -1.956017,0.32174 -0.845348,0.58886 -1.137442,1.69292 -0.317945,1.16136 0.04274,2.10136 0.347762,0.96866 1.594056,1.30907 1.046755,0.26624 1.829486,-0.51023 l 0.01998,0.005 -0.212792,0.80432 q -0.345543,1.3465 -1.717021,0.99435 -0.449617,-0.11895 -0.760991,-0.35635 -0.303734,-0.24606 -0.301746,-0.7587 l -1.164009,-0.30795 q -0.130641,0.9383 0.485946,1.49699 0.6016,0.55472 1.440885,0.77676 2.567815,0.67935 3.225592,-1.6857 z"
             style="font-style:normal;font-variant:normal;font-weight:normal;font-stretch:normal;font-family:'Helvetica 65 Medium';-inkscape-font-specification:'Helvetica 65 Medium, ';stroke-width:0.264583"
             id="path922" />
          <path
             d="m 92.042488,149.80881 2.328572,0.18319 q 1.245903,0.10839 1.175723,1.26399 -0.113421,1.17812 -1.360945,1.09034 l -2.328572,-0.18319 z m -1.588767,3.32728 3.456797,0.27195 q 1.469047,0.10521 2.181038,-0.44526 0.690167,-0.53663 0.761094,-1.43818 0.114934,-1.59269 -1.259175,-2.04809 l 0.0016,-0.0206 q 1.096918,-0.36986 1.198008,-1.52303 0.06427,-0.94873 -0.496849,-1.45939 -0.567084,-0.50077 -1.592274,-0.58143 l -3.657713,-0.28776 z m 1.826677,-6.35134 2.148262,0.16901 q 1.098935,0.0657 1.026558,1.11748 -0.05043,0.50921 -0.364746,0.74885 -0.335735,0.24831 -0.825147,0.20981 l -2.148262,-0.16901 z"
             style="font-style:normal;font-variant:normal;font-weight:normal;font-stretch:normal;font-family:'Helvetica 65 Medium';-inkscape-font-specification:'Helvetica 65 Medium, ';stroke-width:0.264583"
             id="path924" />
          <path
             d="m 102.5283,150.8528 q 0.0605,-1.29801 -0.69259,-2.18391 -0.75433,-0.90652 -2.076041,-0.84646 -1.226344,0.0957 -1.87193,0.96863 -0.666532,0.8691 -0.592778,2.07607 0.07785,1.27403 0.822091,2.01549 0.734554,0.75242 2.025318,0.69425 0.91749,-0.0664 1.56388,-0.5874 0.63575,-0.52551 0.79302,-1.42561 l -1.13992,0.0696 q -0.24369,0.92609 -1.27529,0.98913 -0.743385,0.0351 -1.139231,-0.4274 -0.389428,-0.44216 -0.429457,-1.09723 z m -4.061467,-0.54912 q 0.0028,-0.6318 0.359919,-1.05745 0.367424,-0.42627 0.990912,-0.47473 0.619596,-0.0275 1.006496,0.37339 0.38691,0.40089 0.45379,0.98701 z"
             style="font-style:normal;font-variant:normal;font-weight:normal;font-stretch:normal;font-family:'Helvetica 65 Medium';-inkscape-font-specification:'Helvetica 65 Medium, ';stroke-width:0.264583"
             id="path926" />
          <path
             d="m 103.61818,153.07549 1.18968,-0.1855 -1.16397,-7.46487 -1.18968,0.1855 z"
             style="font-style:normal;font-variant:normal;font-weight:normal;font-stretch:normal;font-family:'Helvetica 65 Medium';-inkscape-font-specification:'Helvetica 65 Medium, ';stroke-width:0.264583"
             id="path928" />
          <path
             d="m 106.13402,152.6443 1.17694,-0.25407 -1.15479,-5.34929 -1.17695,0.25408 z m -1.35326,-6.26861 1.17694,-0.25408 -0.24099,-1.11633 -1.17694,0.25408 z"
             style="font-style:normal;font-variant:normal;font-weight:normal;font-stretch:normal;font-family:'Helvetica 65 Medium';-inkscape-font-specification:'Helvetica 65 Medium, ';stroke-width:0.264583"
             id="path930" />
          <path
             d="m 108.64506,152.23885 1.13282,-0.40801 -1.10146,-3.05813 q -0.22317,-0.65013 -0.007,-1.1179 0.20803,-0.45941 0.65533,-0.62051 0.51536,-0.18562 0.81101,0.01 0.29117,0.21369 0.4838,0.7485 l 1.19075,3.30609 1.13769,-0.40977 -1.0857,-3.01437 q -0.51287,-1.34771 0.59836,-1.76991 0.33547,-0.12083 0.55661,-0.10161 0.22989,0.0435 0.38705,0.19015 0.27272,0.3302 0.48889,0.96088 l 1.08219,3.00465 1.13769,-0.40976 -1.28007,-3.55404 q -0.66833,-1.76408 -2.34937,-1.10919 -0.54453,0.19613 -0.85468,0.555 -0.31637,0.3721 -0.44641,0.88031 v 0 q -0.33126,-0.386 -0.79551,-0.45497 -0.47047,-0.0558 -0.95666,0.11936 -0.59802,0.21539 -0.88522,0.57698 -0.2872,0.3616 -0.39156,0.84958 l -0.0292,0.0105 -0.25917,-0.71955 -1.07448,0.38699 z"
             style="font-style:normal;font-variant:normal;font-weight:normal;font-stretch:normal;font-family:'Helvetica 65 Medium';-inkscape-font-specification:'Helvetica 65 Medium, ';stroke-width:0.264583"
             id="path932" />
          <path
             d="m 119.57364,144.42961 q 0.17062,0.30127 0.27575,0.6337 0.10318,0.33946 0.0788,0.67396 -0.0194,0.69986 -0.72471,1.11123 -0.6391,0.35009 -1.25079,0.067 -0.62203,-0.25941 -1.03204,-0.98335 -0.43803,-0.77341 -0.3535,-1.4211 0.0781,-0.63811 0.73397,-1.02146 0.66159,-0.36282 1.27761,-0.0406 0.61288,0.30616 0.99488,0.98064 z m -2.32004,4.44971 0.99373,-0.56281 -0.36926,-0.652 0.018,-0.0102 q 0.51157,0.31603 1.05935,0.21365 0.53489,-0.0832 1.034,-0.36588 1.0465,-0.61645 1.12677,-1.65964 0.0776,-1.00603 -0.48016,-1.99077 -0.6112,-1.07917 -1.56275,-1.49047 -0.95799,-0.40171 -2.1013,0.22207 -0.40469,0.2292 -0.68189,0.64156 -0.28109,0.42645 -0.31432,0.90257 l -0.0225,0.0127 -1.3752,-2.42813 -1.04769,0.59337 z"
             style="font-style:normal;font-variant:normal;font-weight:normal;font-stretch:normal;font-family:'Helvetica 65 Medium';-inkscape-font-specification:'Helvetica 65 Medium, ';stroke-width:0.264583"
             id="path934" />
          <path
             d="m 122.8008,145.5631 0.99023,-0.68498 -3.11327,-4.50066 -0.99023,0.68497 z m -3.64832,-5.27415 0.99024,-0.68498 -0.6497,-0.93923 -0.99024,0.68497 z"
             style="font-style:normal;font-variant:normal;font-weight:normal;font-stretch:normal;font-family:'Helvetica 65 Medium';-inkscape-font-specification:'Helvetica 65 Medium, ';stroke-width:0.264583"
             id="path936" />
          <path
             d="m 124.88545,144.13921 0.93383,-0.76007 -2.03882,-2.50492 q -0.38493,-0.47292 -0.35734,-1.02842 0.0101,-0.52792 0.47648,-0.92086 0.80707,-0.67023 1.60275,0.2746 l 2.17257,2.66923 0.93784,-0.76333 -2.37156,-2.91372 q -1.20391,-1.40545 -2.67731,-0.21953 -0.85666,0.72391 -0.70932,1.82998 l -0.0291,-0.003 -0.50889,-0.62523 -0.88574,0.72093 z"
             style="font-style:normal;font-variant:normal;font-weight:normal;font-stretch:normal;font-family:'Helvetica 65 Medium';-inkscape-font-specification:'Helvetica 65 Medium, ';stroke-width:0.264583"
             id="path938" />
          <path
             d="m 130.5693,137.89643 q -0.53464,0.5177 -1.17741,0.36281 -0.62821,-0.13293 -1.12042,-0.62731 -0.51776,-0.50541 -0.68441,-1.1562 -0.18129,-0.64352 0.36077,-1.21236 0.5676,-0.55051 1.18119,-0.41761 0.61357,0.14021 1.13495,0.66389 0.51408,0.51636 0.68808,1.15255 0.17759,0.66178 -0.38275,1.23423 z m -1.29327,-5.09297 -0.85693,0.85316 0.53231,0.53467 -0.0147,0.0146 q -0.49293,-0.16552 -0.95,-0.024 -0.45711,0.15612 -0.83064,0.52801 -0.8094,0.835 -0.70932,1.85105 0.0818,1.02698 0.88754,1.8363 0.84219,0.86057 1.83574,1.02354 1.01176,0.18859 1.93458,-0.71558 0.75809,-0.76934 0.48274,-1.83694 l 0.0146,-0.0146 0.587,0.5896 q 0.9881,0.97782 -0.008,1.98414 -0.32959,0.32814 -0.69167,0.47716 -0.36571,0.13805 -0.80728,-0.12237 l -0.85327,0.84952 q 0.74413,0.58629 1.53762,0.33591 0.7825,-0.23944 1.39774,-0.85197 1.88232,-1.87404 0.17245,-3.63542 z"
             style="font-style:normal;font-variant:normal;font-weight:normal;font-stretch:normal;font-family:'Helvetica 65 Medium';-inkscape-font-specification:'Helvetica 65 Medium, ';stroke-width:0.264583"
             id="path940" />
        </g>
        <path
           style="fill:none;stroke:none;stroke-width:0.406px;stroke-linecap:butt;stroke-linejoin:miter;stroke-opacity:1"
           d="m 56.772168,137.713 c 0,0 48.019162,41.88572 83.986182,-10.713"
           id="path921"
           sodipodi:nodetypes="cc" />
      </g>
      <g
         id="g890"
         transform="translate(0,-6.3500001)"
         inkscape:export-xdpi="8"
         inkscape:export-ydpi="8">
        <g
           aria-label="Universitas"
           id="text841"
           style="font-style:normal;font-weight:normal;font-size:10.5833px;line-height:1.25;font-family:sans-serif;fill:#000000;fill-opacity:1;stroke:none;stroke-width:0.264583">
          <path
             d="m 69.77538,77.515917 q 0.804897,1.189986 1.917023,1.33099 1.092058,0.14816 2.270568,-0.636677 1.182812,-0.787702 1.471418,-1.855326 0.290043,-1.074789 -0.49765,-2.276233 l -2.681051,-4.02586 -1.10109,0.733279 2.440444,3.664565 q 0.209099,0.313983 0.395256,0.649453 0.177554,0.341199 0.216072,0.706695 0.03565,0.361194 -0.149414,0.72658 -0.189369,0.36825 -0.727011,0.726296 -0.529039,0.352318 -0.937528,0.382215 -0.412789,0.03276 -0.732318,-0.139384 -0.318091,-0.179311 -0.568765,-0.471816 -0.246372,-0.295369 -0.455472,-0.609351 l -2.440444,-3.664566 -1.10109,0.733279 z"
             style="font-style:normal;font-variant:normal;font-weight:normal;font-stretch:normal;font-family:'Helvetica 65 Medium';-inkscape-font-specification:'Helvetica 65 Medium, ';stroke-width:0.264583"
             id="path888" />
          <path
             d="m 77.676948,75.738063 1.104568,-0.479251 -1.285546,-2.962899 q -0.242711,-0.559395 -0.06593,-1.086741 0.152446,-0.505523 0.707728,-0.757715 0.958235,-0.427027 1.46879,0.697758 l 1.369878,3.157264 1.109309,-0.481308 -1.495347,-3.446443 q -0.779026,-1.678636 -2.518213,-0.935302 -1.020491,0.465304 -1.177718,1.570008 l -0.02719,-0.01073 -0.320872,-0.73954 -1.047681,0.454569 z"
             style="font-style:normal;font-variant:normal;font-weight:normal;font-stretch:normal;font-family:'Helvetica 65 Medium';-inkscape-font-specification:'Helvetica 65 Medium, ';stroke-width:0.264583"
             id="path890" />
          <path
             d="m 83.340116,73.470601 1.151415,-0.352131 -1.600459,-5.233256 -1.151415,0.352131 z m -1.875514,-6.132645 1.151415,-0.352131 -0.333995,-1.092115 -1.151415,0.352131 z"
             style="font-style:normal;font-variant:normal;font-weight:normal;font-stretch:normal;font-family:'Helvetica 65 Medium';-inkscape-font-specification:'Helvetica 65 Medium, ';stroke-width:0.264583"
             id="path892" />
          <path
             d="m 87.173132,72.446077 1.334088,-0.259469 0.872653,-5.744784 -1.222491,0.237764 -0.506641,4.378542 -0.02029,0.0039 -2.166608,-3.858617 -1.288434,0.25059 z"
             style="font-style:normal;font-variant:normal;font-weight:normal;font-stretch:normal;font-family:'Helvetica 65 Medium';-inkscape-font-specification:'Helvetica 65 Medium, ';stroke-width:0.264583"
             id="path894" />
          <path
             d="m 96.01208,69.108337 q 0.08157,-1.296857 -0.656993,-2.194875 -0.739486,-0.918668 -2.061998,-0.880111 -1.227738,0.07569 -1.887433,0.938071 -0.680576,0.858139 -0.626457,2.066152 0.05713,1.275125 0.78921,2.028595 0.722223,0.764257 2.01376,0.727087 0.918453,-0.05149 1.573225,-0.561897 0.644216,-0.515105 0.816097,-1.412529 l -1.140901,0.05111 q -0.258717,0.922005 -1.291207,0.96826 -0.743855,0.02298 -1.132129,-0.44587 -0.382187,-0.448431 -0.411559,-1.104062 z m -4.052002,-0.615083 q 0.01308,-0.631669 0.377066,-1.051455 0.374306,-0.420248 0.9985,-0.458557 0.619956,-0.01743 1.000293,0.389703 0.380336,0.407131 0.437676,0.994263 z"
             style="font-style:normal;font-variant:normal;font-weight:normal;font-stretch:normal;font-family:'Helvetica 65 Medium';-inkscape-font-specification:'Helvetica 65 Medium, ';stroke-width:0.264583"
             id="path896" />
          <path
             d="m 97.048294,71.633999 1.200288,0.09519 0.205908,-2.596332 q 0.08221,-0.905838 0.54303,-1.356574 0.449703,-0.441249 1.08333,-0.390998 0.13909,0.01103 0.26191,0.03114 0.12715,0.03082 0.24915,0.06123 l 0.0919,-1.159076 q -0.0911,-0.02796 -0.45087,-0.06686 -0.567479,-0.03464 -1.038694,0.285677 -0.482743,0.334953 -0.648299,0.78837 l -0.02061,-0.0016 0.08375,-1.056047 -1.128168,-0.08947 z"
             style="font-style:normal;font-variant:normal;font-weight:normal;font-stretch:normal;font-family:'Helvetica 65 Medium';-inkscape-font-specification:'Helvetica 65 Medium, ';stroke-width:0.264583"
             id="path898" />
          <path
             d="m 100.82135,70.171386 q -0.14845,0.950546 0.41271,1.542689 0.56013,0.59721 1.58362,0.802448 0.89682,0.179838 1.70264,-0.08021 0.8342,-0.243819 1.04852,-1.181156 0.0813,-0.40534 -0.0118,-0.703343 -0.0921,-0.30307 -0.30782,-0.514992 -0.20055,-0.235224 -0.48828,-0.403604 -0.29382,-0.164329 -0.60995,-0.296239 -0.66267,-0.269916 -1.13785,-0.528589 -0.22998,-0.140987 -0.34948,-0.307254 -0.1266,-0.15715 -0.0829,-0.375021 0.0782,-0.337441 0.46131,-0.381838 0.34256,-0.02617 0.62124,0.02971 0.40534,0.08128 0.67684,0.278031 0.27149,0.223099 0.26925,0.654829 l 1.23629,0.247912 q 0.0521,-0.91715 -0.50398,-1.429228 -0.55917,-0.496877 -1.41039,-0.667571 -0.35974,-0.07214 -0.76714,-0.09059 -0.40943,-0.0083 -0.77636,0.113112 -0.36794,0.100145 -0.63562,0.357426 -0.2768,0.250183 -0.36824,0.706191 -0.0782,0.390141 0.0219,0.705376 0.088,0.296987 0.29363,0.533227 0.21474,0.216988 0.50146,0.390435 0.28267,0.167364 0.58765,0.302309 0.66064,0.253699 1.15001,0.520487 0.22896,0.146054 0.35455,0.308271 0.11544,0.186534 0.0697,0.414538 -0.0975,0.433709 -0.52016,0.491261 -0.43379,0.06059 -0.81176,-0.02575 -0.48338,-0.08639 -0.77713,-0.382468 -0.29275,-0.274795 -0.25194,-0.793663 z"
             style="font-style:normal;font-variant:normal;font-weight:normal;font-stretch:normal;font-family:'Helvetica 65 Medium';-inkscape-font-specification:'Helvetica 65 Medium, ';stroke-width:0.264583"
             id="path900" />
          <path
             d="m 106.14866,73.179884 1.14964,0.35787 1.62654,-5.225209 -1.14964,-0.357869 z m 1.90608,-6.123214 1.14964,0.35787 0.33944,-1.090436 -1.14964,-0.357869 z"
             style="font-style:normal;font-variant:normal;font-weight:normal;font-stretch:normal;font-family:'Helvetica 65 Medium';-inkscape-font-specification:'Helvetica 65 Medium, ';stroke-width:0.264583"
             id="path902" />
          <path
             d="m 109.73291,69.507417 0.84444,0.337809 -1.1996,2.998724 q -0.26487,0.634289 -0.10751,1.075712 0.15448,0.434706 0.99508,0.782111 0.36848,0.136275 0.75232,0.234168 l 0.34549,-0.863633 q -0.2543,-0.04607 -0.48556,-0.149714 -0.35505,-0.142033 -0.38479,-0.359864 -0.0249,-0.215912 0.12093,-0.552728 l 1.08636,-2.715644 1.01237,0.404986 0.33397,-0.834845 -1.01237,-0.404986 0.60844,-1.520953 -1.12272,-0.449131 -0.60844,1.520952 -0.84444,-0.337808 z"
             style="font-style:normal;font-variant:normal;font-weight:normal;font-stretch:normal;font-family:'Helvetica 65 Medium';-inkscape-font-specification:'Helvetica 65 Medium, ';stroke-width:0.264583"
             id="path904" />
          <path
             d="m 116.09975,74.502381 -0.43346,0.787786 q -0.13702,0.249012 -0.33786,0.356741 -0.21441,0.100256 -0.45983,0.106777 -0.24292,0.002 -0.4675,-0.0508 -0.23363,-0.05777 -0.41926,-0.159913 -0.31285,-0.160346 -0.54553,-0.477119 -0.27185,-0.320629 -0.0916,-0.669701 0.22421,-0.407476 0.58849,-0.437068 0.34571,-0.02801 0.71018,0.113555 0.3921,0.144965 0.77016,0.294004 0.37149,0.139528 0.68618,0.135737 z m 1.68224,-0.548936 q 0.39588,-0.773077 -0.009,-1.420422 -0.40355,-0.617233 -1.14606,-1.02579 -0.8145,-0.459962 -1.62568,-0.475731 -0.4005,0.0097 -0.76458,0.210412 -0.36658,0.205276 -0.6689,0.658243 l 1.05943,0.58294 q 0.25952,-0.364453 0.6564,-0.399699 0.36428,-0.02959 0.81703,0.219528 0.34908,0.180276 0.60123,0.472375 0.24921,0.308173 0.034,0.720631 -0.24322,0.420603 -0.70709,0.277435 -0.21959,-0.06185 -0.49261,-0.17668 -0.27799,-0.105778 -0.60919,-0.21134 -0.34999,-0.157183 -0.70632,-0.270673 -0.37331,-0.09334 -0.72015,-0.09544 -0.35386,-6.4e-5 -0.66678,0.193449 -0.31993,0.19555 -0.56905,0.6483 -0.37459,0.702219 -0.0799,1.324413 0.29013,0.619704 0.94662,0.980928 0.4437,0.244137 0.98319,0.346341 0.52092,0.103784 0.99977,-0.01612 v 0 q -0.0994,0.352256 0.0361,0.609695 0.14055,0.248384 0.45748,0.422768 0.35812,0.185259 0.7328,0.243964 l 0.40358,-0.733456 q -0.17749,-0.07406 -0.26804,-0.123888 -0.26305,-0.132943 -0.0497,-0.499216 z"
             style="font-style:normal;font-variant:normal;font-weight:normal;font-stretch:normal;font-family:'Helvetica 65 Medium';-inkscape-font-specification:'Helvetica 65 Medium, ';stroke-width:0.264583"
             id="path906" />
          <path
             d="m 117.76035,76.633883 q -0.54998,0.789362 -0.30507,1.567529 0.24178,0.782276 1.07182,1.415269 0.72731,0.554653 1.5656,0.674034 0.85668,0.146402 1.46008,-0.602223 0.25069,-0.328728 0.29761,-0.637386 0.05,-0.312767 -0.051,-0.597806 -0.0772,-0.299317 -0.26203,-0.57676 -0.19209,-0.276467 -0.41844,-0.533572 -0.47737,-0.53301 -0.79114,-0.973756 -0.14494,-0.227512 -0.17949,-0.429333 -0.0449,-0.196736 0.0898,-0.373428 0.21817,-0.269042 0.58199,-0.141064 0.31939,0.126589 0.54539,0.298939 0.32873,0.25069 0.48656,0.54652 0.14627,0.31951 -0.0449,0.706594 l 1.00262,0.764606 q 0.44879,-0.801542 0.17331,-1.505538 -0.28489,-0.691669 -0.97521,-1.218119 -0.29175,-0.222488 -0.64986,-0.417602 -0.36438,-0.186896 -0.74742,-0.238545 -0.37461,-0.07122 -0.72797,0.04274 -0.35844,0.103582 -0.64047,0.473401 -0.24129,0.3164 -0.28939,0.643653 -0.051,0.305524 0.0303,0.607975 0.0979,0.289148 0.27965,0.5707 0.18074,0.274309 0.39574,0.529255 0.48266,0.51755 0.80562,0.971805 0.1418,0.231621 0.1836,0.432467 0.022,0.218257 -0.11899,0.403167 -0.27771,0.347115 -0.68283,0.213638 -0.41647,-0.135636 -0.71838,-0.378876 -0.39664,-0.289477 -0.53093,-0.68434 -0.14272,-0.375293 0.12133,-0.823807 z"
             style="font-style:normal;font-variant:normal;font-weight:normal;font-stretch:normal;font-family:'Helvetica 65 Medium';-inkscape-font-specification:'Helvetica 65 Medium, ';stroke-width:0.264583"
             id="path908" />
        </g>
        <circle
           style="fill:none;fill-opacity:1;stroke:none;stroke-width:0.42879;stroke-linecap:round;stroke-linejoin:round;stroke-opacity:1"
           id="path847"
           cx="-145.59126"
           cy="3.9415712"
           r="38.591042"
           transform="rotate(-129.27963)" />
      </g>
    </g>
  </g>
</svg>
